<?xml version="1.0" encoding="UTF-8" standalone="no"?>
<svg
   xmlns:dc="http://purl.org/dc/elements/1.1/"
   xmlns:cc="http://creativecommons.org/ns#"
   xmlns:rdf="http://www.w3.org/1999/02/22-rdf-syntax-ns#"
   xmlns:svg="http://www.w3.org/2000/svg"
   xmlns="http://www.w3.org/2000/svg"
   xmlns:sodipodi="http://sodipodi.sourceforge.net/DTD/sodipodi-0.dtd"
   xmlns:inkscape="http://www.inkscape.org/namespaces/inkscape"
   viewBox="0 0 432 274.66666"
   height="274.66666"
   width="432"
   xml:space="preserve"
   id="svg2"
   version="1.1"
   sodipodi:docname="SVGLogo-Dark.svg"
   inkscape:version="0.92.4 (5da689c313, 2019-01-14)"><sodipodi:namedview
     pagecolor="#2511a7"
     bordercolor="#666666"
     borderopacity="1"
     objecttolerance="10"
     gridtolerance="10"
     guidetolerance="10"
     inkscape:pageopacity="1"
     inkscape:pageshadow="2"
     inkscape:window-width="3000"
     inkscape:window-height="1875"
     id="namedview53"
     showgrid="false"
     inkscape:zoom="1.8440476"
     inkscape:cx="163.2862"
     inkscape:cy="191.43924"
     inkscape:window-x="-13"
     inkscape:window-y="-13"
     inkscape:window-maximized="1"
     inkscape:current-layer="svg2" /><metadata
     id="metadata8"><rdf:RDF><cc:Work
         rdf:about=""><dc:format>image/svg+xml</dc:format><dc:type
           rdf:resource="http://purl.org/dc/dcmitype/StillImage" /><dc:title></dc:title></cc:Work></rdf:RDF></metadata><defs
     id="defs6" /><path
     id="path14"
     style="fill:#cccccc;fill-opacity:1;fill-rule:evenodd;stroke:none;stroke-width:0.13333333"
     d="M 141.932,24.333343 121.464,60.333342 132,61.604009 147.068,34.202676 141.932,24.333343"
     inkscape:connector-curvature="0" /><path
     id="path16"
     style="fill:#cccccc;fill-opacity:1;fill-rule:evenodd;stroke:none;stroke-width:0.13333333"
     d="m 40.333332,86.666675 7.4016,-16.464 -4.5376,-7.333333 -10.932266,23.797333 h 8.068266"
     inkscape:connector-curvature="0" /><path
     id="path18"
     style="fill:#cccccc;fill-opacity:1;fill-rule:evenodd;stroke:none;stroke-width:0.13333333"
     d="M 29.999999,91.666675 13.530666,127.53601 h 8.469333 l 8,-17.80134 V 91.666675"
     inkscape:connector-curvature="0" /><path
     id="path20"
     style="fill:#ffffff;fill-opacity:1;fill-rule:evenodd;stroke:none;stroke-width:0.13333333"
     d="M 171.932,127.46934 137.53066,62.202675 35.530666,50.202676 82.666665,127.46934 H 171.932"
     inkscape:connector-curvature="0" /><path
     id="path22"
     style="fill:#808080;fill-opacity:1;fill-rule:evenodd;stroke:none;stroke-width:0.13333333"
     d="M 35.530666,50.202676 0,127.46934 H 8.4640665 L 39.931732,57.401342 35.530666,50.202676"
     inkscape:connector-curvature="0" /><path
     id="path24"
     style="fill:#f2f2f2;fill-opacity:1;fill-rule:evenodd;stroke:none;stroke-width:0.13333333"
     d="M 32.463999,106.80134 H 51.797332 V 88.869075 H 32.463999 Z"
     inkscape:connector-curvature="0" /><path
     id="path26"
     style="fill:#f2f2f2;fill-opacity:1;fill-rule:evenodd;stroke:none;stroke-width:0.13333333"
     d="M 32.463999,127.46801 H 51.797332 V 108.93734 H 32.463999 Z"
     inkscape:connector-curvature="0" /><path
     id="path28"
     style="fill:#cccccc;fill-opacity:1;fill-rule:evenodd;stroke:none;stroke-width:0.13333333"
     d="m 386.66666,95.802674 21.33333,2.134667 -19.59867,-33.603999 -9.136,23.869333 7.40134,11.865335 v -4.265336"
     inkscape:connector-curvature="0" /><path
     id="path30"
     style="fill:#cccccc;fill-opacity:1;fill-rule:evenodd;stroke:none;stroke-width:0.13333333"
     d="m 408.19732,98.536008 v 28.933332 h 4.53734 v -21.136 l -4.53734,-7.797332"
     inkscape:connector-curvature="0" /><path
     id="path32"
     style="fill:#2311a6;fill-opacity:1;fill-rule:evenodd;stroke:none;stroke-width:0.13333333"
     d="m 416.13066,112.80267 v 14.66667 h 15.73333 l -15.73333,-14.66667"
     inkscape:connector-curvature="0" /><path
     id="path34"
     style="fill:#ffffff;fill-opacity:1;fill-rule:evenodd;stroke:none;stroke-width:0.13333333"
     d="m 134.40133,10.06801 61.796,117.468 h 52.33333 l -10.12933,-26.20267 h 16.12933 l 30.136,-78.666664 -28.86933,11.536 -121.396,-24.134666"
     inkscape:connector-curvature="0" /><path
     id="path36"
     style="fill:#ffffff;fill-opacity:1;fill-rule:evenodd;stroke:none;stroke-width:0.13333333"
     d="m 360.53066,61.000009 -8.19734,-7.666667 -56.66666,-11.265333 33.464,59.202661 h -0.0627 l 0.19734,0.33334 h -16.40134 l -0.0667,-0.13467 v 26 h 56.66666 l -10.396,-20.86533 h 13.19733 l 9.80267,-25.604002 12.932,-33.729332 -34.46933,13.729333"
     inkscape:connector-curvature="0" /><path
     id="path38"
     style="fill:#f2f2f2;fill-opacity:1;fill-rule:evenodd;stroke:none;stroke-width:0.13333333"
     d="M 299.13066,108.40134 V 89.666675 l -28.13067,-2.464 v 20.198665 l 28.13067,1"
     inkscape:connector-curvature="0" /><path
     id="path40"
     style="fill:#f2f2f2;fill-opacity:1;fill-rule:evenodd;stroke:none;stroke-width:0.13333333"
     d="m 270.99999,110.20267 v 17.26667 h 28.13067 v -16.86533 l -28.13067,-0.40134"
     inkscape:connector-curvature="0" /><path
     id="path42"
     style="fill:#cccccc;fill-opacity:1;fill-rule:evenodd;stroke:none;stroke-width:0.13333333"
     d="m 369.40132,127.53601 v -20.932 h -10.40133 l 10.40133,20.932"
     inkscape:connector-curvature="0" /><path
     id="path44"
     style="fill:#f2f2f2;fill-opacity:1;fill-rule:evenodd;stroke:none;stroke-width:0.13333333"
     d="M 406.73466,112.33334 V 99.136008 l -18.33334,-1.6 v 14.130662 l 18.33334,0.66667"
     inkscape:connector-curvature="0" /><path
     id="path46"
     style="fill:#f2f2f2;fill-opacity:1;fill-rule:evenodd;stroke:none;stroke-width:0.13333333"
     d="m 388.40132,113.40134 v 14.13467 h 18.33334 v -13.86934 l -18.33334,-0.26533"
     inkscape:connector-curvature="0" /><path
     id="path48"
     style="fill:#808080;fill-opacity:1;fill-rule:evenodd;stroke:none;stroke-width:0.13333333"
     d="m 117.53066,59.869342 22.068,-39.999999 -5.19733,-9.801333 -27.53733,48.535999 10.66666,1.265333"
     inkscape:connector-curvature="0" /><path
     id="path50"
     style="fill:#4d4d4d;fill-opacity:1;fill-rule:evenodd;stroke:none;stroke-width:0.13333333"
     d="M 208.59866,24.802676 V 1.02e-5 l -6.932,7.7346665 V 23.401343 l 6.932,1.401333"
     inkscape:connector-curvature="0" /><path
     id="path52"
     style="fill:#666666;fill-opacity:1;fill-rule:evenodd;stroke:none;stroke-width:0.13333333"
     d="M 234.86399,30.000009 V 6.9373434 L 208.59866,1.02e-5 V 24.802676 l 26.26533,5.197333"
     inkscape:connector-curvature="0" /><path
     id="path54"
     style="fill:#cccccc;fill-opacity:1;fill-rule:evenodd;stroke:none;stroke-width:0.13333333"
     d="m 248.66666,127.46934 v -26.19867 h -10.20267 l 10.20267,26.19867"
     inkscape:connector-curvature="0" /><path
     id="path56"
     style="fill:#cccccc;fill-opacity:1;fill-rule:evenodd;stroke:none;stroke-width:0.13333333"
     d="m 298.86399,87.802675 -23.59866,-40.531999 -11.33334,29.666666 5.19867,8.333333 29.73333,2.532"
     inkscape:connector-curvature="0" /><path
     id="path58"
     style="fill:#cccccc;fill-opacity:1;fill-rule:evenodd;stroke:none;stroke-width:0.13333333"
     d="m 301.06799,91.536008 v 35.933332 h 5.66667 v -26.19867 l -5.66667,-9.734662"
     inkscape:connector-curvature="0" /><path
     id="path60"
     style="fill:#808080;fill-opacity:1;fill-rule:evenodd;stroke:none;stroke-width:0.13333333"
     d="m 394.93199,47.270676 -4.468,11.729333 25.66667,47.604001 h 12.33333 l -33.532,-59.333334"
     inkscape:connector-curvature="0" /><path
     id="path62"
     style="fill:#808080;fill-opacity:1;fill-rule:evenodd;stroke:none;stroke-width:0.13333333"
     d="m 284.73466,22.734676 -7.204,18.734666 35.33333,60.134668 h 16.40134 L 284.73466,22.734676"
     inkscape:connector-curvature="0" /><path
     id="path64"
     style="fill:#ffffff;fill-opacity:1;fill-rule:nonzero;stroke:none;stroke-width:0.13333333"
     d="m 128.5,199.34374 v 1.79227 h -18.7292 v -1.79227 c 0.2188,0.0417 0.4428,0.0631 0.66666,0.0631 0.25987,0 0.53187,0 0.81307,0 1.33333,0 2.37493,-0.15627 3.124,-0.48027 1.06813,-0.44267 1.60413,-1.15053 1.60413,-2.12387 V 178.0735 H 89.437464 v 17.85307 c 0,1.20947 0.448,2.10413 1.354667,2.688 0.915733,0.57347 2.067733,0.8548 3.4584,0.8548 0.342667,0 0.832267,-0.0428 1.457333,-0.1256 v 1.79227 H 77.166665 v -1.79227 c 1.385466,0 2.4172,-0.0677 3.083866,-0.20773 2.0416,-0.4428 3.061467,-1.46414 3.061467,-3.06254 v -36.20946 c 0,-0.96814 -0.4948,-1.62387 -1.478667,-1.9572 -0.973466,-0.33334 -2.2188,-0.5 -3.7292,-0.5 -0.447866,0 -0.7604,0 -0.937466,0 v -1.72974 h 18.417199 v 1.72974 c -2.057333,0 -3.390666,0.0625 -4,0.1864 -1.433333,0.324 -2.1464,1.03746 -2.1464,2.14693 v 15.7292 h 26.541196 v -15.06253 c 0,-1.02654 -0.69746,-1.78134 -2.0828,-2.2708 -1.37453,-0.48547 -2.79173,-0.7292 -4.25053,-0.7292 v -1.72974 h 18.7292 v 1.72974 c -1.73853,0 -3.19747,0.1864 -4.37453,0.56253 -1.16667,0.3744 -1.74947,1.16667 -1.74947,2.3744 v 36.3964 c 0,0.84787 0.4844,1.51453 1.45733,2 0.9692,0.48907 2.12547,0.7292 3.4588,0.7292 0.2188,0 0.44267,0 0.66667,0 0.3172,-0.0839 0.5412,-0.1256 0.66667,-0.1256 z m 11.084,-43.20773 c 0.968,0 1.79066,0.35306 2.45733,1.06133 0.66667,0.70947 1,1.6 1,2.66667 0,0.99066 -0.35333,1.81306 -1.06267,2.47973 -0.708,0.66667 -1.57733,1 -2.604,1 -1.01466,0 -1.85333,-0.35467 -2.52,-1.06253 -0.66666,-0.71867 -1,-1.61454 -1,-2.688 0,-0.96774 0.35334,-1.79054 1.06267,-2.4572 0.708,-0.66667 1.59333,-1 2.66667,-1 z m 7.93733,43.4572 v 1.5428 h -15.39587 v -1.5428 c 0.30107,0 0.5464,0 0.7292,0 1.06667,0 2.02,-0.10934 2.85334,-0.33334 0.844,-0.21866 1.27066,-0.6864 1.27066,-1.39586 v -20.33334 c 0,-1.00933 -0.348,-1.73853 -1.04133,-2.18693 -0.68267,-0.44213 -1.59867,-0.66667 -2.74933,-0.66667 -0.324,0 -0.7864,0.0417 -1.39587,0.1256 v -1.66666 c 1.77587,-0.26147 3.55187,-0.61467 5.3332,-1.06254 1.776,-0.4428 3.50533,-1 5.18667,-1.66666 l 0.54266,0.66666 v 26.85307 c 0,0.8084 0.552,1.324 1.66667,1.5428 0.44267,0.0828 1.44267,0.12387 3,0.12387 z"
     inkscape:connector-curvature="0" /><path
     id="path66"
     style="fill:#ffffff;fill-opacity:1;fill-rule:nonzero;stroke:none;stroke-width:0.13333333"
     d="m 166.00533,199.59321 v 1.5428 h -15.85467 v -1.66667 c 0.48534,0.0411 0.88,0.0613 1.188,0.0613 1.068,0 1.896,-0.10933 2.47867,-0.33333 0.928,-0.34267 1.396,-0.94267 1.396,-1.79053 v -38.06307 c 0,-0.58387 -0.38533,-1.02133 -1.14533,-1.31307 -0.75067,-0.29053 -1.59467,-0.43746 -2.52134,-0.43746 -0.58266,0 -1.01066,0.0323 -1.27066,0.0839 v -1.8744 c 3.73466,-0.58386 7.292,-1.3188 10.66666,-2.20946 v 43.75053 c 0,1.01613 0.844,1.7032 2.54134,2.06307 0.52666,0.0828 1.36533,0.14533 2.52133,0.1864 z"
     inkscape:connector-curvature="0" /><path
     id="path68"
     style="fill:#ffffff;fill-opacity:1;fill-rule:nonzero;stroke:none;stroke-width:0.13333333"
     d="m 184.49466,199.59321 v 1.5428 H 168.64 v -1.66667 c 0.48533,0.0411 0.88133,0.0613 1.188,0.0613 1.068,0 1.896,-0.10933 2.47866,-0.33333 0.928,-0.34267 1.396,-0.94267 1.396,-1.79053 v -38.06307 c 0,-0.58387 -0.38533,-1.02133 -1.14533,-1.31307 -0.75067,-0.29053 -1.59333,-0.43746 -2.52133,-0.43746 -0.58267,0 -1.00934,0.0323 -1.27067,0.0839 v -1.8744 c 3.73467,-0.58386 7.292,-1.3188 10.66667,-2.20946 v 43.75053 c 0,1.01613 0.844,1.7032 2.54133,2.06307 0.52667,0.0828 1.36533,0.14533 2.52133,0.1864 z"
     inkscape:connector-curvature="0" /><path
     id="path70"
     style="fill:#ffffff;fill-opacity:1;fill-rule:nonzero;stroke:none;stroke-width:0.13333333"
     d="m 242.56266,191.59321 h 1.93733 l -1.27066,9.5428 h -34 v -1.79227 c 1.192,0.1256 2.312,-0.11453 3.35466,-0.7292 1.052,-0.62493 1.58267,-1.4692 1.58267,-2.54107 v -36.2708 c 0,-0.84386 -1,-1.49066 -3,-1.93866 -0.66667,-0.12387 -1.66667,-0.276 -3,-0.4572 v -1.72974 h 18.52133 v 1.5828 c -1.90666,0.1828 -3.30266,0.4068 -4.188,0.66667 -1.55733,0.448 -2.33333,1.0948 -2.33333,1.93747 v 36.06253 c 0,0.66667 0.19333,1.2708 0.58267,1.8136 0.40133,0.53067 0.93866,0.79053 1.60533,0.79053 h 12.39467 c 2.136,0 3.876,-0.61346 5.20933,-1.8536 1.33333,-1.25053 2.19733,-2.94213 2.604,-5.08386 z"
     inkscape:connector-curvature="0" /><path
     id="path72"
     style="fill:#ffffff;fill-opacity:1;fill-rule:nonzero;stroke:none;stroke-width:0.13333333"
     d="m 277.97866,199.59321 v 1.5428 h -9.66667 v -5.45894 c -1.90533,1.78174 -3.45733,3.06307 -4.66666,3.8536 -1.95734,1.29227 -3.80134,1.93867 -5.52,1.93867 -2.5,0 -4.552,-0.55213 -6.14667,-1.66667 -1.82267,-1.25053 -2.728,-3.0948 -2.728,-5.5428 0,-3.00933 1.02,-5.42653 3.06133,-7.24946 1.652,-1.4692 4.07334,-2.6088 7.272,-3.4172 1.776,-0.44267 4.68667,-0.92654 8.728,-1.4572 v -3.66667 c 0,-0.96933 -0.78133,-2.01053 -2.33333,-3.1256 -1.78133,-1.2916 -3.66667,-1.93693 -5.66667,-1.93693 -1.90533,0 -3.41066,0.53586 -4.52,1.6036 -0.948,0.8912 -1.66133,2.22453 -2.14666,4 l -1.85334,-0.4172 0.24934,-3.85307 c 1.51066,-0.98547 2.73466,-1.7188 3.66666,-2.20947 2.88534,-1.50933 5.31334,-2.2708 7.27067,-2.2708 2.76133,0 5.21867,0.75054 7.376,2.25054 2.15067,1.4896 3.22933,3.05213 3.22933,4.68693 v 19.272 c 0,0.93227 0.26,1.64 0.79067,2.12387 0.71867,0.66666 1.92267,1 3.604,1 z m -10.52,-5.39587 c 0.16667,-0.25987 0.344,-0.5468 0.54133,-0.8536 0.208,-0.3172 0.312,-0.67707 0.312,-1.08387 v -7.66666 c -3.33333,0 -6.26533,0.64693 -8.79066,1.93746 -3.07334,1.55734 -4.604,3.74014 -4.604,6.5428 0,1.23854 0.504,2.3692 1.52,3.39587 1.02666,1.03067 2.188,1.54107 3.48,1.54107 1.33333,0 2.61333,-0.33334 3.85333,-1 1.25067,-0.66667 2.48,-1.6036 3.688,-2.81307 z"
     inkscape:connector-curvature="0" /><path
     id="path74"
     style="fill:#ffffff;fill-opacity:1;fill-rule:nonzero;stroke:none;stroke-width:0.13333333"
     d="m 319.11466,199.59321 v 1.5428 h -10.792 v -20.87614 c 0,-1.776 -0.76,-3.2292 -2.27067,-4.35306 -1.516,-1.136 -3.24533,-1.70947 -5.188,-1.70947 -2,0 -3.83333,0.60533 -5.5,1.81307 -1.66666,1.19746 -2.5,2.74946 -2.5,4.66666 v 16.3964 c 0,1.11454 0.44267,1.84374 1.33334,2.1864 0.52666,0.224 1.48,0.33334 2.85466,0.33334 0.484,0 0.86534,0 1.14534,0 v 1.5428 h -16.208 v -1.5428 c 1.19333,-0.0411 2.084,-0.12387 2.66666,-0.24947 1.776,-0.40107 2.66667,-1.11453 2.66667,-2.1464 v -20.66667 c 0,-0.66666 -0.33333,-1.16666 -1,-1.5 -0.66667,-0.33333 -1.48933,-0.5 -2.45867,-0.5 -0.724,0 -1.39066,0.0735 -2,0.20947 v -1.72973 c 3.59467,-0.54107 7.084,-1.40627 10.45867,-2.6036 l 0.54133,0.66666 v 5.06254 c 1.33334,-1.33334 2.41734,-2.31307 3.25067,-2.93867 2.58267,-1.9572 4.916,-2.93747 7,-2.93747 2.844,0 5.292,0.69894 7.33333,2.08387 2.31734,1.55787 3.47867,3.59893 3.47867,6.1256 v 19.06133 c 0,0.66667 0.40667,1.18294 1.22933,1.5428 0.81734,0.34787 2.136,0.51974 3.95867,0.51974 z"
     inkscape:connector-curvature="0" /><path
     id="path76"
     style="fill:#ffffff;fill-opacity:1;fill-rule:nonzero;stroke:none;stroke-width:0.13333333"
     d="m 359.07332,199.19734 v 1.93867 h -10.91733 v -5.7292 c -1.61467,1.8224 -3.432,3.30106 -5.45867,4.43693 -2.01466,1.1256 -4.11333,1.68693 -6.29066,1.68693 -4,0 -7.09467,-1.33333 -9.27067,-4 -2.16666,-2.66666 -3.25066,-6.44266 -3.25066,-11.33333 0,-4.79053 1.688,-8.676 5.06266,-11.66667 3.15067,-2.79053 6.96933,-4.18693 11.45867,-4.18693 1.42666,0 2.796,0.16667 4.104,0.5 1.31733,0.33333 2.53066,0.87507 3.64533,1.6256 v -12.87613 c 0,-0.92654 -0.89067,-1.54627 -2.66667,-1.85307 -0.58266,-0.0948 -1.47333,-0.16667 -2.66666,-0.20947 v -1.728 c 2,-0.30266 3.81733,-0.636 5.45866,-1 0.62534,-0.136 2.44267,-0.5428 5.45867,-1.20946 v 42.48026 c 0,1.23854 0.51067,2.12387 1.54133,2.66667 0.708,0.34787 1.61467,0.51973 2.72934,0.51973 0.21866,0 0.46266,0 0.72933,0 0.0933,0 0.208,-0.0197 0.33333,-0.0625 z m -19.45866,-1.66667 c 2.35866,0 4.37466,-0.8536 6.04133,-2.56133 1.66667,-1.70947 2.5,-3.74013 2.5,-6.10533 v -10.66667 c 0,-0.84267 -1.11467,-1.9 -3.33333,-3.16667 -2.224,-1.25986 -4.224,-1.89466 -6,-1.89466 -2.948,0.30666 -5.30667,1.62386 -7.08267,3.9572 -1.78133,2.33333 -2.66666,5.05733 -2.66666,8.16666 0,3.33334 0.916,6.16147 2.74933,8.48027 2,2.53067 4.59333,3.79053 7.792,3.79053 z"
     inkscape:connector-curvature="0" /><path
     id="path78"
     style="fill:#ffffff;fill-opacity:1;fill-rule:nonzero;stroke:none;stroke-width:0.13333333"
     d="m 32.859866,264.46927 c -2.390533,0 -4.2864,-0.64115 -5.688,-1.91719 -1.390667,-1.27608 -2.083867,-2.99994 -2.083867,-5.16661 0,-2.19227 0.652134,-3.9376 1.958934,-5.2292 1.317066,-1.29227 3.239466,-2.09373 5.770266,-2.41613 l 5.5844,-0.70947 c 0.458267,-0.0411 0.8848,-0.11347 1.2916,-0.228 0.5256,-0.136 0.937467,-0.4068 1.228133,-0.81307 0.292267,-0.41613 0.438534,-0.92706 0.438534,-1.54173 v -0.20773 c 0,-1.30267 -0.495867,-2.32294 -1.4796,-3.06307 -0.9896,-0.7344 -2.364134,-1.1036 -4.1256,-1.1036 -1.697334,0 -3.014533,0.39053 -3.957333,1.16667 -0.947867,0.7812 -1.521334,1.94786 -1.729067,3.5 h -3.770933 c 0.192266,-2.6776 1.1292,-4.688 2.812,-6.02134 1.693333,-1.34426 4.109466,-2.02146 7.250533,-2.02146 2.968266,0 5.228133,0.6464 6.7708,1.93866 1.552133,1.2812 2.333333,3.1452 2.333333,5.60414 V 259.636 c 0,0.4052 0.124,0.728 0.374533,0.97854 0.249467,0.24946 0.5828,0.37506 1,0.37506 0.125467,0 0.3016,-0.0109 0.541733,-0.0417 0.234267,-0.0265 0.489067,-0.0676 0.770267,-0.12493 v 2.95832 c -0.4052,0.15052 -0.8276,0.27082 -1.270267,0.35468 -0.432399,0.0932 -0.801599,0.14532 -1.104266,0.14532 -1.541067,0 -2.666667,-0.42656 -3.3744,-1.27084 -0.458933,-0.56771 -0.787067,-1.36511 -0.980267,-2.39588 -0.3068,0.37506 -0.656266,0.74016 -1.041066,1.08286 -2.057334,1.84948 -4.563067,2.77187 -7.5204,2.77187 z m 8.5,-10.33327 v -2.6464 c -0.766667,0.3744 -1.614534,0.62494 -2.542667,0.75054 l -3.748933,0.56253 c -1.975067,0.2656 -3.417733,0.72387 -4.333333,1.3744 -0.9068,0.64013 -1.354667,1.51613 -1.354667,2.6256 0,1.3744 0.365067,2.43227 1.1036,3.16667 0.751067,0.73853 1.802533,1.10413 3.166666,1.10413 2.166667,0 3.9896,-0.58387 5.480134,-1.75053 1.009466,-0.83334 1.686533,-1.7604 2.019866,-2.79227 0.05213,-0.19213 0.104134,-0.50413 0.1468,-0.93747 0.0412,-0.42653 0.06253,-0.91613 0.06253,-1.4572 z m 11.041733,9.6666 v -24.37606 h 3.9156 v 3.58386 l 0.8964,-1.18746 c 1.776,-2.0828 4.005199,-3.1256 6.687999,-3.1256 2.677067,0 4.748934,0.7292 6.207734,2.18813 1.458933,1.45827 2.188,3.53067 2.188,6.20773 v 16.7094 h -4.104134 v -15.313 c 0,-2.13493 -0.4172,-3.6776 -1.250533,-4.6256 -0.822933,-0.9572 -2.156267,-1.43746 -4,-1.43746 -1.973333,0 -3.541066,0.75053 -4.707733,2.25053 -1.156267,1.5 -1.729733,3.52027 -1.729733,6.06307 v 13.06246 z"
     inkscape:connector-curvature="0" /><path
     id="path80"
     style="fill:#ffffff;fill-opacity:1;fill-rule:nonzero;stroke:none;stroke-width:0.13333333"
     d="m 87.687998,264.46927 c -3.266667,0 -5.865067,-1.21457 -7.792133,-3.64633 -1.931867,-2.44267 -2.895867,-5.74014 -2.895867,-9.8964 0,-3.66667 0.926533,-6.61454 2.792133,-8.85307 1.874534,-2.25053 4.312,-3.37613 7.312,-3.37613 3,0 5.374533,1.26666 7.125067,3.79226 l 0.312,0.45827 v -12.6452 h 4.104133 v 33.49993 h -3.812 v -3.33326 l -0.521333,0.74946 c -1.681334,2.16662 -3.890667,3.25047 -6.624,3.25047 z m 0.2292,-22.0838 c -2.291733,0 -3.974533,0.74 -5.042667,2.20773 -1.071866,1.45894 -1.603733,3.78707 -1.603733,6.98027 0,3 0.572933,5.312 1.7292,6.93693 1.150533,1.6256 2.792133,2.43747 4.9172,2.43747 1.9844,0 3.5828,-0.74 4.790666,-2.22907 1.218667,-1.5 1.833334,-3.47866 1.833334,-5.9376 0,-3.33333 -0.5772,-5.89573 -1.7292,-7.688 -1.140134,-1.80106 -2.7708,-2.70773 -4.8948,-2.70773 z"
     inkscape:connector-curvature="0" /><path
     id="path82"
     style="fill:#ffffff;fill-opacity:1;fill-rule:nonzero;stroke:none;stroke-width:0.13333333"
     d="m 118.06826,263.8026 v -33.49993 h 13.74894 c 4.2508,0 7.6308,1.52027 10.1468,4.56133 2.50933,3.03187 3.77066,7.1 3.77066,12.20947 0,5.11453 -1.28666,9.1812 -3.85466,12.20773 -2.57334,3.0162 -6.04134,4.5214 -10.416,4.5214 z m 4.51974,-3.87606 h 8.29226 c 3.2504,0 5.75574,-1.11454 7.52107,-3.35307 1.776,-2.23493 2.66667,-5.4016 2.66667,-9.5 0,-4.10947 -0.85467,-7.28133 -2.56267,-9.52133 -1.69867,-2.24947 -4.104,-3.37507 -7.22933,-3.37507 h -8.688 z"
     inkscape:connector-curvature="0" /><path
     id="path84"
     style="fill:#ffffff;fill-opacity:1;fill-rule:nonzero;stroke:none;stroke-width:0.13333333"
     d="m 160.95333,264.46927 c -3.448,0 -6.156,-1.08905 -8.12533,-3.27193 -1.97334,-2.19214 -2.95867,-5.21867 -2.95867,-9.0828 0,-4.0932 1.04267,-7.35467 3.12533,-9.7708 2.084,-2.42654 4.88534,-3.6464 8.41734,-3.6464 3.192,0 5.77066,1.18813 7.728,3.56253 1.95866,2.3656 2.93866,5.47507 2.93866,9.33333 l -0.0427,1.45894 h -17.812 c 0.16666,2.43173 0.71333,4.2864 1.64533,5.5624 1.16667,1.54173 2.99067,2.312 5.48,2.312 1.568,0 2.93733,-0.43694 4.104,-1.312 1.16667,-0.88534 1.88,-2.0104 2.14533,-3.3744 H 171.64 c -0.59867,2.66666 -1.812,4.70773 -3.64534,6.12393 -1.82266,1.40676 -4.16666,2.1052 -7.04133,2.1052 z m 6.83333,-14.72913 C 167.672,247.47867 167.12,245.7136 166.12,244.44787 c -1.11467,-1.38533 -2.74534,-2.08387 -4.896,-2.08387 -2.156,0 -3.87467,0.80787 -5.16667,2.4172 -1.016,1.24947 -1.62533,2.9068 -1.83333,4.95894 z"
     inkscape:connector-curvature="0" /><path
     id="path86"
     style="fill:#ffffff;fill-opacity:1;fill-rule:nonzero;stroke:none;stroke-width:0.13333333"
     d="M 174.34933,239.42654 H 179.12 l 6.54133,19.95893 6.75067,-19.95893 h 4.54133 l -9.104,24.37606 h -4.396 z"
     inkscape:connector-curvature="0" /><path
     id="path88"
     style="fill:#ffffff;fill-opacity:1;fill-rule:nonzero;stroke:none;stroke-width:0.13333333"
     d="m 210.26533,264.46927 c -3.448,0 -6.156,-1.08905 -8.12534,-3.27193 -1.97333,-2.19214 -2.95733,-5.21867 -2.95733,-9.0828 0,-4.0932 1.04133,-7.35467 3.124,-9.7708 2.084,-2.42654 4.88667,-3.6464 8.41733,-3.6464 3.19334,0 5.77067,1.18813 7.72934,3.56253 1.95866,2.3656 2.93733,5.47507 2.93733,9.33333 l -0.0413,1.45894 h -17.81334 c 0.16667,2.43173 0.71467,4.2864 1.64667,5.5624 1.16667,1.54173 2.98933,2.312 5.47867,2.312 1.568,0 2.93733,-0.43694 4.104,-1.312 1.16666,-0.88534 1.88,-2.0104 2.14666,-3.3744 h 4.04134 c -0.59867,2.66666 -1.81334,4.70773 -3.64667,6.12393 -1.82267,1.40676 -4.16667,2.1052 -7.04133,2.1052 z m 6.83333,-14.72913 c -0.11467,-2.26147 -0.66667,-4.02654 -1.66667,-5.29227 -1.11466,-1.38533 -2.744,-2.08387 -4.896,-2.08387 -2.156,0 -3.87466,0.80787 -5.16666,2.4172 -1.01467,1.24947 -1.624,2.9068 -1.83334,4.95894 z"
     inkscape:connector-curvature="0" /><path
     id="path90"
     style="fill:#ffffff;fill-opacity:1;fill-rule:nonzero;stroke:none;stroke-width:0.13333333"
     d="m 226.40666,263.8026 h 4.10364 v -33.5 h -4.10364 z"
     inkscape:connector-curvature="0" /><path
     id="path92"
     style="fill:#ffffff;fill-opacity:1;fill-rule:nonzero;stroke:none;stroke-width:0.13333333"
     d="m 246.63066,264.46927 c -3.36533,0 -6.09467,-1.18801 -8.188,-3.56247 -2.08267,-2.37613 -3.12533,-5.48026 -3.12533,-9.3136 0,-3.85826 1.04266,-6.96773 3.12533,-9.33333 2.09333,-2.3744 4.82267,-3.56253 8.188,-3.56253 3.4,0 6.14533,1.18813 8.22933,3.56253 2.08267,2.3656 3.124,5.47507 3.124,9.33333 0,3.83334 -1.04133,6.93747 -3.124,9.3136 -2.084,2.37446 -4.82933,3.56247 -8.22933,3.56247 z m 0,-3.54273 c 2.16667,0 3.88,-0.83854 5.14533,-2.51974 1.276,-1.6932 1.91734,-3.96413 1.91734,-6.8136 0,-2.85826 -0.64134,-5.1344 -1.91734,-6.83333 -1.26533,-1.6916 -2.97866,-2.54107 -5.14533,-2.54107 -2.15733,0 -3.87067,0.84947 -5.14667,2.54107 -1.26533,1.69893 -1.896,3.97507 -1.896,6.83333 0,2.84947 0.63067,5.1204 1.896,6.8136 1.276,1.6812 2.98934,2.51974 5.14667,2.51974 z"
     inkscape:connector-curvature="0" /><path
     id="path94"
     style="fill:#ffffff;fill-opacity:1;fill-rule:nonzero;stroke:none;stroke-width:0.13333333"
     d="m 262.35999,239.42654 h 3.89467 v 3.45893 l 0.20933,-0.29227 c 1.76,-2.5932 4.08267,-3.89586 6.95734,-3.89586 3.17733,0 5.69866,1.1 7.56266,3.29226 1.86,2.1984 2.792,5.16094 2.792,8.89587 0,4.24 -0.93733,7.5624 -2.812,9.97853 -1.876,2.40683 -4.47466,3.60527 -7.792,3.60527 -2.75066,0 -4.93733,-1.05312 -6.56266,-3.1666 l -0.14534,-0.18813 v 12.33338 h -4.104 z m 10.604,21.48026 c 2.13467,0 3.76,-0.80266 4.87467,-2.4172 1.10933,-1.6256 1.66667,-3.9844 1.66667,-7.0828 0,-3.05213 -0.536,-5.3136 -1.604,-6.7708 -1.05734,-1.46933 -2.69867,-2.20946 -4.91734,-2.20946 -2.26533,0 -3.916,0.82813 -4.95733,2.48026 -1.04267,1.65574 -1.56267,4.2812 -1.56267,7.8744 0,2.59907 0.56267,4.60427 1.68667,6.02147 1.12533,1.4052 2.72933,2.10413 4.81333,2.10413 z"
     inkscape:connector-curvature="0" /><path
     id="path96"
     style="fill:#ffffff;fill-opacity:1;fill-rule:nonzero;stroke:none;stroke-width:0.13333333"
     d="m 288.64533,263.8026 v -24.37606 h 3.91733 v 3.6256 l 0.83333,-1.10427 c 1.83334,-2.16667 4.02534,-3.25053 6.58267,-3.25053 2.19333,0 3.93867,0.6464 5.22933,1.93866 0.568,0.57187 1.01067,1.228 1.33334,1.97854 l 0.66666,-0.85467 c 1.76134,-2.04107 3.86534,-3.06253 6.31334,-3.06253 2.552,0 4.52533,0.69853 5.916,2.08386 1.38533,1.39067 2.084,3.36414 2.084,5.91614 v 17.10526 h -4.10534 v -15.72913 c 0,-1.84427 -0.38533,-3.25053 -1.14533,-4.20947 -0.76533,-0.9572 -1.87467,-1.43746 -3.33333,-1.43746 -1.78134,0 -3.188,0.69893 -4.22934,2.08386 -1.04133,1.37507 -1.56266,3.24427 -1.56266,5.60414 v 13.68806 h -4.104 v -16.7094 c 0,-1.50933 -0.348,-2.66666 -1.04134,-3.4572 -0.69733,-0.80266 -1.70266,-1.20946 -3.02133,-1.20946 -1.82267,0 -3.312,0.78133 -4.47867,2.33333 -1.16666,1.5428 -1.75066,3.53747 -1.75066,5.98027 v 13.06246 z"
     inkscape:connector-curvature="0" /><path
     id="path98"
     style="fill:#ffffff;fill-opacity:1;fill-rule:nonzero;stroke:none;stroke-width:0.13333333"
     d="m 337.50532,264.46927 c -3.448,0 -6.15599,-1.08905 -8.12533,-3.27193 -1.97333,-2.19214 -2.95866,-5.21867 -2.95866,-9.0828 0,-4.0932 1.04266,-7.35467 3.12533,-9.7708 2.084,-2.42654 4.88533,-3.6464 8.41733,-3.6464 3.192,0 5.77067,1.18813 7.72933,3.56253 1.95734,2.3656 2.93734,5.47507 2.93734,9.33333 l -0.0427,1.45894 h -17.812 c 0.16667,2.43173 0.71334,4.2864 1.64534,5.5624 1.16666,1.54173 2.99066,2.312 5.47999,2.312 1.568,0 2.93734,-0.43694 4.104,-1.312 1.16667,-0.88534 1.88,-2.0104 2.14534,-3.3744 h 4.04266 c -0.6,2.66666 -1.81333,4.70773 -3.64666,6.12393 -1.82267,1.40676 -4.16667,2.1052 -7.04134,2.1052 z m 6.83334,-14.72913 c -0.11467,-2.26147 -0.66667,-4.02654 -1.66667,-5.29227 -1.11467,-1.38533 -2.74533,-2.08387 -4.896,-2.08387 -2.156,0 -3.87467,0.80787 -5.16666,2.4172 -1.016,1.24947 -1.62534,2.9068 -1.83334,4.95894 z"
     inkscape:connector-curvature="0" /><path
     id="path100"
     style="fill:#ffffff;fill-opacity:1;fill-rule:nonzero;stroke:none;stroke-width:0.13333333"
     d="m 353.54132,263.8026 v -24.37606 h 3.91734 v 3.58386 l 0.896,-1.18746 c 1.776,-2.0828 4.00533,-3.1256 6.68666,-3.1256 2.67734,0 4.75067,0.7292 6.20934,2.18813 1.45733,1.45827 2.18666,3.53067 2.18666,6.20773 v 16.7094 h -4.104 v -15.313 c 0,-2.13493 -0.416,-3.6776 -1.25066,-4.6256 -0.82267,-0.9572 -2.156,-1.43746 -4,-1.43746 -1.97334,0 -3.54134,0.75053 -4.708,2.25053 -1.156,1.5 -1.72934,3.52027 -1.72934,6.06307 v 13.06246 z"
     inkscape:connector-curvature="0" /><path
     id="path102"
     style="fill:#ffffff;fill-opacity:1;fill-rule:nonzero;stroke:none;stroke-width:0.13333333"
     d="m 388.47866,263.78126 c -1.39067,0.20833 -2.40534,0.31197 -3.04134,0.31197 -1.792,0 -3.05733,-0.39583 -3.792,-1.18645 -0.73866,-0.79219 -1.104,-2.14691 -1.104,-4.06304 v -16.08387 h -3.37466 v -3.33333 h 3.37466 v -6.83334 h 4.084 v 6.83334 h 3.85334 v 3.33333 h -3.85334 v 16.08387 c 0,0.54173 0.21334,0.97346 0.64534,1.29226 0.44266,0.3228 1.02666,0.47854 1.75066,0.47854 h 1.45734 z"
     inkscape:connector-curvature="0" /><path
     id="path104"
     style="fill:#ffffff;fill-opacity:1;fill-rule:nonzero;stroke:none;stroke-width:0.13333333"
     d="m 406.44266,246.4896 c -0.12534,-1.35893 -0.68267,-2.4068 -1.66667,-3.14586 -0.97333,-0.75054 -2.28667,-1.12494 -3.93733,-1.12494 -1.708,0 -3.01067,0.30254 -3.896,0.89574 -0.89067,0.59906 -1.33334,1.46933 -1.33334,2.60426 0,0.86507 0.312,1.51614 0.93734,1.95827 0.62533,0.43227 1.86533,0.86987 3.72933,1.31253 l 4.22933,1 c 2.37467,0.58387 4.068,1.38494 5.08267,2.39587 1,1 1.5,2.40667 1.5,4.20773 0,2.4172 -0.86933,4.33334 -2.604,5.75055 -1.73867,1.41615 -4.09333,2.12552 -7.06267,2.12552 -3.432,0 -5.99466,-0.67708 -7.68666,-2.04271 -1.68267,-1.35829 -2.61467,-3.50002 -2.792,-6.41616 h 3.93733 c 0.208,1.73907 0.81733,2.9948 1.83333,3.7708 1.02667,0.76574 2.59334,1.14534 4.708,1.14534 1.844,0 3.24,-0.34267 4.188,-1.04107 0.94267,-0.69227 1.41734,-1.7136 1.41734,-3.06253 0,-0.84427 -0.308,-1.4896 -0.91734,-1.93747 -0.62533,-0.42667 -1.88533,-0.86413 -3.77066,-1.312 l -4.22934,-1 c -2.30666,-0.55213 -3.948,-1.32293 -4.916,-2.3136 -0.97466,-0.96773 -1.45866,-2.33853 -1.45866,-4.1036 0,-2.29227 0.81733,-4.10413 2.45866,-5.43747 1.63467,-1.34426 3.85334,-2.02146 6.64534,-2.02146 2.83333,0 5.088,0.69853 6.77066,2.08386 1.67734,1.37507 2.57334,3.28134 2.688,5.7084 z"
     inkscape:connector-curvature="0" /></svg>