<?xml version="1.0" encoding="UTF-8" standalone="no"?>
<svg
   xmlns:dc="http://purl.org/dc/elements/1.1/"
   xmlns:cc="http://creativecommons.org/ns#"
   xmlns:rdf="http://www.w3.org/1999/02/22-rdf-syntax-ns#"
   xmlns:svg="http://www.w3.org/2000/svg"
   xmlns="http://www.w3.org/2000/svg"
   viewBox="0 0 432 274.66666"
   height="274.66666"
   width="432"
   xml:space="preserve"
   id="svg2"
   version="1.1"><metadata
     id="metadata8"><rdf:RDF><cc:Work
         rdf:about=""><dc:format>image/svg+xml</dc:format><dc:type
           rdf:resource="http://purl.org/dc/dcmitype/StillImage" /></cc:Work></rdf:RDF></metadata><defs
     id="defs6" /><g
     transform="matrix(1.3333333,0,0,-1.3333333,0,274.66667)"
     id="g10"><g
       transform="scale(0.1)"
       id="g12"><path
         id="path14"
         style="fill:#cccccc;fill-opacity:1;fill-rule:evenodd;stroke:none"
         d="m 1064.49,1877.5 -153.51,-270 79.02,-9.53 113.01,205.51 -38.52,74.02" /><path
         id="path16"
         style="fill:#cccccc;fill-opacity:1;fill-rule:evenodd;stroke:none"
         d="m 302.5,1410 55.512,123.48 -34.032,55 L 241.988,1410 H 302.5" /><path
         id="path18"
         style="fill:#cccccc;fill-opacity:1;fill-rule:evenodd;stroke:none"
         d="M 225,1372.5 101.48,1103.48 H 165 l 60,133.51 v 135.51" /><path
         id="path20"
         style="fill:#2611a8;fill-opacity:1;fill-rule:evenodd;stroke:none"
         d="m 1289.49,1103.98 -258.01,489.5 -765,90 353.52,-579.5 h 669.49" /><path
         id="path22"
         style="fill:#0f1747;fill-opacity:1;fill-rule:evenodd;stroke:none"
         d="M 266.48,1683.48 0,1103.98 h 63.4805 l 236.0075,525.51 -33.008,53.99" /><path
         id="path24"
         style="fill:#4c4c4c;fill-opacity:1;fill-rule:evenodd;stroke:none"
         d="m 243.48,1258.99 h 145 v 134.492 h -145 z" /><path
         id="path26"
         style="fill:#4c4c4c;fill-opacity:1;fill-rule:evenodd;stroke:none"
         d="m 243.48,1103.99 h 145 v 138.98 h -145 z" /><path
         id="path28"
         style="fill:#cccccc;fill-opacity:1;fill-rule:evenodd;stroke:none"
         d="m 2900,1341.48 160,-16.01 -146.99,252.03 -68.52,-179.02 55.51,-88.99 v 31.99" /><path
         id="path30"
         style="fill:#cccccc;fill-opacity:1;fill-rule:evenodd;stroke:none"
         d="m 3061.48,1320.98 v -217 h 34.03 v 158.52 l -34.03,58.48" /><path
         id="path32"
         style="fill:#2311a6;fill-opacity:1;fill-rule:evenodd;stroke:none"
         d="m 3120.98,1213.98 v -110 h 118 l -118,110" /><path
         id="path34"
         style="fill:#230fa6;fill-opacity:1;fill-rule:evenodd;stroke:none"
         d="m 1008.01,1984.49 463.47,-881.01 h 392.5 L 1788.01,1300 h 120.97 l 226.02,590 -216.52,-86.52 -910.47,181.01" /><path
         id="path36"
         style="fill:#2611a8;fill-opacity:1;fill-rule:evenodd;stroke:none"
         d="m 2703.98,1602.5 -61.48,57.5 -425,84.49 250.98,-444.02 h -0.47 l 1.48,-2.5 h -123.01 l -0.5,1.01 v -195 h 425 l -77.97,156.49 h 98.98 l 73.52,192.03 96.99,252.97 -258.52,-102.97" /><path
         id="path38"
         style="fill:#4c4c4c;fill-opacity:1;fill-rule:evenodd;stroke:none"
         d="m 2243.48,1246.99 v 140.51 l -210.98,18.48 v -151.49 l 210.98,-7.5" /><path
         id="path40"
         style="fill:#4c4c4c;fill-opacity:1;fill-rule:evenodd;stroke:none"
         d="m 2032.5,1233.48 v -129.5 h 210.98 v 126.49 l -210.98,3.01" /><path
         id="path42"
         style="fill:#cccccc;fill-opacity:1;fill-rule:evenodd;stroke:none"
         d="m 2770.51,1103.48 v 156.99 h -78.01 l 78.01,-156.99" /><path
         id="path44"
         style="fill:#4c4c4c;fill-opacity:1;fill-rule:evenodd;stroke:none"
         d="m 3050.51,1217.5 v 98.98 l -137.5,12 V 1222.5 l 137.5,-5" /><path
         id="path46"
         style="fill:#4c4c4c;fill-opacity:1;fill-rule:evenodd;stroke:none"
         d="m 2913.01,1209.49 v -106.01 h 137.5 v 104.02 l -137.5,1.99" /><path
         id="path48"
         style="fill:#0f1747;fill-opacity:1;fill-rule:evenodd;stroke:none"
         d="m 881.48,1610.98 165.51,300 -38.98,73.51 -206.53,-364.02 80,-9.49" /><path
         id="path50"
         style="fill:#191919;fill-opacity:1;fill-rule:evenodd;stroke:none"
         d="M 1564.49,1873.98 V 2060 l -51.99,-58.01 v -117.5 l 51.99,-10.51" /><path
         id="path52"
         style="fill:#4c4c4c;fill-opacity:1;fill-rule:evenodd;stroke:none"
         d="m 1761.48,1835 v 172.97 L 1564.49,2060 V 1873.98 L 1761.48,1835" /><path
         id="path54"
         style="fill:#cccccc;fill-opacity:1;fill-rule:evenodd;stroke:none"
         d="m 1865,1103.98 v 196.49 h -76.52 L 1865,1103.98" /><path
         id="path56"
         style="fill:#cccccc;fill-opacity:1;fill-rule:evenodd;stroke:none"
         d="m 2241.48,1401.48 -176.99,303.99 -85,-222.5 38.99,-62.5 223,-18.99" /><path
         id="path58"
         style="fill:#cccccc;fill-opacity:1;fill-rule:evenodd;stroke:none"
         d="m 2258.01,1373.48 v -269.5 h 42.5 v 196.49 l -42.5,73.01" /><path
         id="path60"
         style="fill:#0f1747;fill-opacity:1;fill-rule:evenodd;stroke:none"
         d="m 2961.99,1705.47 -33.51,-87.97 192.5,-357.03 h 92.5 l -251.49,445" /><path
         id="path62"
         style="fill:#0f1747;fill-opacity:1;fill-rule:evenodd;stroke:none"
         d="m 2135.51,1889.49 -54.03,-140.51 265,-451.01 h 123.01 l -333.98,591.52" /><path
         id="path64"
         style="fill:#011749;fill-opacity:1;fill-rule:nonzero;stroke:none"
         d="M 963.75,564.922 V 551.48 H 823.281 v 13.442 c 1.641,-0.313 3.321,-0.473 5,-0.473 1.949,0 3.989,0 6.098,0 10,0 17.812,1.172 23.43,3.602 8.011,3.32 12.031,8.629 12.031,15.929 V 724.449 H 670.781 V 590.551 c 0,-9.071 3.36,-15.781 10.16,-20.16 6.868,-4.301 15.508,-6.411 25.938,-6.411 2.57,0 6.242,0.321 10.93,0.942 V 551.48 H 578.75 v 13.442 c 10.391,0 18.129,0.508 23.129,1.558 15.312,3.321 22.961,10.981 22.961,22.969 V 861.02 c 0,7.261 -3.711,12.179 -11.09,14.679 -7.301,2.5 -16.641,3.75 -27.969,3.75 -3.359,0 -5.703,0 -7.031,0 v 12.973 h 138.129 v -12.973 c -15.43,0 -25.43,-0.469 -30,-1.398 -10.75,-2.43 -16.098,-7.781 -16.098,-16.102 V 743.98 H 869.84 v 112.969 c 0,7.699 -5.231,13.36 -15.621,17.031 -10.309,3.641 -20.938,5.469 -31.879,5.469 v 12.973 h 140.469 v -12.973 c -13.039,0 -23.981,-1.398 -32.809,-4.219 -8.75,-2.808 -13.121,-8.75 -13.121,-17.808 V 584.449 c 0,-6.359 3.633,-11.359 10.93,-15 7.269,-3.668 15.941,-5.469 25.941,-5.469 1.641,0 3.32,0 5,0 2.379,0.629 4.059,0.942 5,0.942 z m 83.13,324.058 c 7.26,0 13.43,-2.648 18.43,-7.96 5,-5.321 7.5,-12 7.5,-20 0,-7.43 -2.65,-13.598 -7.97,-18.598 -5.31,-5 -11.83,-7.5 -19.53,-7.5 -7.61,0 -13.9,2.66 -18.9,7.969 -5,5.39 -7.5,12.109 -7.5,20.16 0,7.258 2.65,13.429 7.97,18.429 5.31,5 11.95,7.5 20,7.5 z m 59.53,-325.929 V 551.48 H 990.941 v 11.571 c 2.258,0 4.098,0 5.469,0 8,0 15.15,0.82 21.4,2.5 6.33,1.64 9.53,5.148 9.53,10.469 v 152.5 c 0,7.57 -2.61,13.039 -7.81,16.402 -5.12,3.316 -11.99,5 -20.62,5 -2.43,0 -5.898,-0.313 -10.469,-0.942 v 12.5 c 13.319,1.961 26.639,4.61 39.999,7.969 13.32,3.321 26.29,7.5 38.9,12.5 l 4.07,-5 V 575.551 c 0,-6.063 4.14,-9.93 12.5,-11.571 3.32,-0.621 10.82,-0.929 22.5,-0.929 z" /><path
         id="path66"
         style="fill:#011749;fill-opacity:1;fill-rule:nonzero;stroke:none"
         d="M 1245.04,563.051 V 551.48 h -118.91 v 12.5 c 3.64,-0.308 6.6,-0.46 8.91,-0.46 8.01,0 14.22,0.82 18.59,2.5 6.96,2.57 10.47,7.07 10.47,13.429 v 285.473 c 0,4.379 -2.89,7.66 -8.59,9.848 -5.63,2.179 -11.96,3.281 -18.91,3.281 -4.37,0 -7.58,-0.242 -9.53,-0.629 v 14.058 c 28.01,4.379 54.69,9.891 80,16.571 V 579.922 c 0,-7.621 6.33,-12.774 19.06,-15.473 3.95,-0.621 10.24,-1.09 18.91,-1.398 z" /><path
         id="path68"
         style="fill:#011749;fill-opacity:1;fill-rule:nonzero;stroke:none"
         d="M 1383.71,563.051 V 551.48 H 1264.8 v 12.5 c 3.64,-0.308 6.61,-0.46 8.91,-0.46 8.01,0 14.22,0.82 18.59,2.5 6.96,2.57 10.47,7.07 10.47,13.429 v 285.473 c 0,4.379 -2.89,7.66 -8.59,9.848 -5.63,2.179 -11.95,3.281 -18.91,3.281 -4.37,0 -7.57,-0.242 -9.53,-0.629 v 14.058 c 28.01,4.379 54.69,9.891 80,16.571 V 579.922 c 0,-7.621 6.33,-12.774 19.06,-15.473 3.95,-0.621 10.24,-1.09 18.91,-1.398 z" /><path
         id="path70"
         style="fill:#011749;fill-opacity:1;fill-rule:nonzero;stroke:none"
         d="m 1819.22,623.051 h 14.53 l -9.53,-71.571 h -255 v 13.442 c 8.94,-0.942 17.34,0.859 25.16,5.469 7.89,4.687 11.87,11.019 11.87,19.058 V 861.48 c 0,6.329 -7.5,11.18 -22.5,14.54 -5,0.929 -12.5,2.07 -22.5,3.429 v 12.973 h 138.91 v -11.871 c -14.3,-1.371 -24.77,-3.051 -31.41,-5 -11.68,-3.36 -17.5,-8.211 -17.5,-14.531 V 590.551 c 0,-5 1.45,-9.531 4.37,-13.602 3.01,-3.98 7.04,-5.929 12.04,-5.929 h 92.96 c 16.02,0 29.07,4.601 39.07,13.902 10,9.379 16.48,22.066 19.53,38.129 z" /><path
         id="path72"
         style="fill:#011749;fill-opacity:1;fill-rule:nonzero;stroke:none"
         d="M 2084.84,563.051 V 551.48 h -72.5 v 40.942 c -14.29,-13.363 -25.93,-22.973 -35,-28.902 -14.68,-9.692 -28.51,-14.54 -41.4,-14.54 -18.75,0 -34.14,4.141 -46.1,12.5 -13.67,9.379 -20.46,23.211 -20.46,41.571 0,22.57 7.65,40.699 22.96,54.371 12.39,11.019 30.55,19.566 54.54,25.629 13.32,3.32 35.15,6.949 65.46,10.929 v 27.5 c 0,7.27 -5.86,15.079 -17.5,23.442 -13.36,9.687 -27.5,14.527 -42.5,14.527 -14.29,0 -25.58,-4.019 -33.9,-12.027 -7.11,-6.684 -12.46,-16.684 -16.1,-30 l -13.9,3.129 1.87,28.898 c 11.33,7.391 20.51,12.891 27.5,16.571 21.64,11.32 39.85,17.031 54.53,17.031 20.71,0 39.14,-5.629 55.32,-16.879 16.13,-11.172 24.22,-22.891 24.22,-35.152 V 586.48 c 0,-6.992 1.95,-12.3 5.93,-15.929 5.39,-5 14.42,-7.5 27.03,-7.5 z m -78.9,40.469 c 1.25,1.949 2.58,4.101 4.06,6.402 1.56,2.379 2.34,5.078 2.34,8.129 v 57.5 c -25,0 -46.99,-4.852 -65.93,-14.531 -23.05,-11.68 -34.53,-28.051 -34.53,-49.071 0,-9.289 3.78,-17.769 11.4,-25.469 7.7,-7.73 16.41,-11.558 26.1,-11.558 10,0 19.6,2.5 28.9,7.5 9.38,5 18.6,12.027 27.66,21.098 z" /><path
         id="path74"
         style="fill:#011749;fill-opacity:1;fill-rule:nonzero;stroke:none"
         d="M 2393.36,563.051 V 551.48 h -80.94 v 156.571 c 0,13.32 -5.7,24.219 -17.03,32.648 -11.37,8.52 -24.34,12.821 -38.91,12.821 -15,0 -28.75,-4.54 -41.25,-13.598 -12.5,-8.981 -18.75,-20.621 -18.75,-35 V 581.949 c 0,-8.359 3.32,-13.828 10,-16.398 3.95,-1.68 11.1,-2.5 21.41,-2.5 3.63,0 6.49,0 8.59,0 V 551.48 h -121.56 v 11.571 c 8.95,0.308 15.63,0.929 20,1.871 13.32,3.008 20,8.359 20,16.098 v 155 c 0,5 -2.5,8.75 -7.5,11.25 -5,2.5 -11.17,3.75 -18.44,3.75 -5.43,0 -10.43,-0.551 -15,-1.571 v 12.973 c 26.96,4.058 53.13,10.547 78.44,19.527 l 4.06,-5 V 738.98 c 10,10 18.13,17.348 24.38,22.04 19.37,14.679 36.87,22.031 52.5,22.031 21.33,0 39.69,-5.242 55,-15.629 17.38,-11.684 26.09,-26.992 26.09,-45.942 V 578.52 c 0,-5 3.05,-8.872 9.22,-11.571 6.13,-2.609 16.02,-3.898 29.69,-3.898 z" /><path
         id="path76"
         style="fill:#011749;fill-opacity:1;fill-rule:nonzero;stroke:none"
         d="m 2693.05,566.02 v -14.54 h -81.88 v 42.969 c -12.11,-13.668 -25.74,-24.758 -40.94,-33.277 -15.11,-8.442 -30.85,-12.652 -47.18,-12.652 -30,0 -53.21,10 -69.53,30 -16.25,20 -24.38,48.32 -24.38,85 0,35.929 12.66,65.07 37.97,87.5 23.63,20.929 52.27,31.402 85.94,31.402 10.7,0 20.97,-1.25 30.78,-3.75 9.88,-2.5 18.98,-6.563 27.34,-12.192 v 96.571 c 0,6.949 -6.68,11.597 -20,13.898 -4.37,0.711 -11.05,1.25 -20,1.571 v 12.96 c 15,2.27 28.63,4.77 40.94,7.5 4.69,1.02 18.32,4.071 40.94,9.071 V 589.449 c 0,-9.289 3.83,-15.929 11.56,-20 5.31,-2.609 12.11,-3.898 20.47,-3.898 1.64,0 3.47,0 5.47,0 0.7,0 1.56,0.148 2.5,0.469 z m -145.94,12.5 c 17.69,0 32.81,6.402 45.31,19.21 12.5,12.821 18.75,28.051 18.75,45.79 v 80 c 0,6.32 -8.36,14.25 -25,23.75 -16.68,9.449 -31.68,14.21 -45,14.21 -22.11,-2.3 -39.8,-12.179 -53.12,-29.679 -13.36,-17.5 -20,-37.93 -20,-61.25 0,-25 6.87,-46.211 20.62,-63.602 15,-18.98 34.45,-28.429 58.44,-28.429 z" /><path
         id="path78"
         style="fill:#2511a7;fill-opacity:1;fill-rule:nonzero;stroke:none"
         d="m 246.449,76.4805 c -17.929,0 -32.148,4.8086 -42.66,14.3789 -10.43,9.5706 -15.629,22.4996 -15.629,38.7496 0,16.442 4.891,29.532 14.692,39.219 9.878,9.692 24.296,15.703 43.277,18.121 l 41.883,5.321 c 3.437,0.308 6.636,0.851 9.687,1.71 3.942,1.02 7.031,3.051 9.211,6.098 2.192,3.121 3.289,6.953 3.289,11.563 v 1.558 c 0,9.77 -3.719,17.422 -11.097,22.973 -7.422,5.508 -17.731,8.277 -30.942,8.277 -12.73,0 -22.609,-2.929 -29.68,-8.75 -7.109,-5.859 -11.41,-14.609 -12.968,-26.25 H 197.23 c 1.442,20.082 8.469,35.16 21.09,45.16 12.7,10.082 30.821,15.161 54.379,15.161 22.262,0 39.211,-4.848 50.781,-14.54 11.641,-9.609 17.5,-23.589 17.5,-42.031 V 112.73 c 0,-3.039 0.93,-5.46 2.809,-7.339 1.871,-1.871 4.371,-2.813 7.5,-2.813 0.941,0 2.262,0.082 4.063,0.313 1.757,0.199 3.668,0.507 5.777,0.937 V 81.6406 c -3.039,-1.1289 -6.207,-2.0312 -9.527,-2.6601 -3.243,-0.6992 -6.012,-1.0899 -8.282,-1.0899 -11.558,0 -20,3.1992 -25.308,9.5313 -3.442,4.2578 -5.903,10.2383 -7.352,17.9691 -2.301,-2.813 -4.922,-5.5512 -7.808,-8.1215 -15.43,-13.8711 -34.223,-20.789 -56.403,-20.789 z m 63.75,77.4995 v 19.848 c -5.75,-2.808 -12.109,-4.687 -19.07,-5.629 l -28.117,-4.219 c -14.813,-1.992 -25.633,-5.429 -32.5,-10.308 -6.801,-4.801 -10.16,-11.371 -10.16,-19.692 0,-10.308 2.738,-18.242 8.277,-23.75 5.633,-5.539 13.519,-8.281 23.75,-8.281 16.25,0 29.922,4.379 41.101,13.129 7.571,6.25 12.649,13.203 15.149,20.942 0.391,1.441 0.781,3.781 1.101,7.031 0.309,3.199 0.469,6.871 0.469,10.929 z M 393.012,81.4805 V 264.301 h 29.367 v -26.879 l 6.723,8.906 c 13.32,15.621 30.039,23.442 50.16,23.442 20.078,0 35.617,-5.469 46.558,-16.411 10.942,-10.937 16.41,-26.48 16.41,-46.558 V 81.4805 H 511.449 V 196.328 c 0,16.012 -3.129,27.582 -9.379,34.692 -6.172,7.179 -16.172,10.781 -30,10.781 -14.8,0 -26.558,-5.629 -35.308,-16.879 -8.672,-11.25 -12.973,-26.402 -12.973,-45.473 V 81.4805 Z" /><path
         id="path80"
         style="fill:#2511a7;fill-opacity:1;fill-rule:nonzero;stroke:none"
         d="m 657.66,76.4805 c -24.5,0 -43.988,9.1093 -58.441,27.3475 -14.489,18.32 -21.719,43.051 -21.719,74.223 0,27.5 6.949,49.609 20.941,66.398 14.059,16.879 32.34,25.321 54.84,25.321 22.5,0 40.309,-9.5 53.438,-28.442 l 2.34,-3.437 V 332.73 H 739.84 V 81.4805 H 711.25 V 106.48 l -3.91,-5.621 C 694.73,84.6094 678.16,76.4805 657.66,76.4805 Z m 1.719,165.6285 c -17.188,0 -29.809,-5.55 -37.82,-16.558 -8.039,-10.942 -12.028,-28.403 -12.028,-52.352 0,-22.5 4.297,-39.84 12.969,-52.027 8.629,-12.192 20.941,-18.281 36.879,-18.281 14.883,0 26.871,5.55 35.93,16.718 9.14,11.25 13.75,26.09 13.75,44.532 0,25 -4.329,44.218 -12.969,57.66 -8.551,13.508 -20.781,20.308 -36.711,20.308 z" /><path
         id="path82"
         style="fill:#2511a7;fill-opacity:1;fill-rule:nonzero;stroke:none"
         d="M 885.512,81.4805 V 332.73 h 103.117 c 31.881,0 57.231,-11.402 76.101,-34.21 18.82,-22.739 28.28,-53.25 28.28,-91.571 0,-38.359 -9.65,-68.859 -28.91,-91.558 -19.3,-22.6215 -45.31,-33.9105 -78.12,-33.9105 z m 33.898,29.0705 h 62.192 c 24.378,0 43.168,8.359 56.408,25.148 13.32,16.762 20,40.512 20,71.25 0,30.821 -6.41,54.61 -19.22,71.41 -12.74,16.871 -30.78,25.313 -54.22,25.313 h -65.16 z" /><path
         id="path84"
         style="fill:#2511a7;fill-opacity:1;fill-rule:nonzero;stroke:none"
         d="m 1207.15,76.4805 c -25.86,0 -46.17,8.1679 -60.94,24.5395 -14.8,16.441 -22.19,39.14 -22.19,68.121 0,30.699 7.82,55.16 23.44,73.281 15.63,18.199 36.64,27.348 63.13,27.348 23.94,0 43.28,-8.911 57.96,-26.719 14.69,-17.742 22.04,-41.063 22.04,-70 l -0.32,-10.942 h -133.59 c 1.25,-18.238 5.35,-32.148 12.34,-41.718 8.75,-11.563 22.43,-17.34 41.1,-17.34 11.76,0 22.03,3.277 30.78,9.84 8.75,6.64 14.1,15.078 16.09,25.308 h 30.31 c -4.49,-20 -13.59,-35.308 -27.34,-45.9295 -13.67,-10.5507 -31.25,-15.789 -52.81,-15.789 z m 51.25,110.4685 c -0.86,16.961 -5,30.199 -12.5,39.692 -8.36,10.39 -20.59,15.629 -36.72,15.629 -16.17,0 -29.06,-6.059 -38.75,-18.129 -7.62,-9.371 -12.19,-21.801 -13.75,-37.192 z" /><path
         id="path86"
         style="fill:#2511a7;fill-opacity:1;fill-rule:nonzero;stroke:none"
         d="m 1307.62,264.301 h 35.78 l 49.06,-149.692 50.63,149.692 h 34.06 L 1408.87,81.4805 h -32.97 z" /><path
         id="path88"
         style="fill:#2511a7;fill-opacity:1;fill-rule:nonzero;stroke:none"
         d="m 1576.99,76.4805 c -25.86,0 -46.17,8.1679 -60.94,24.5395 -14.8,16.441 -22.18,39.14 -22.18,68.121 0,30.699 7.81,55.16 23.43,73.281 15.63,18.199 36.65,27.348 63.13,27.348 23.95,0 43.28,-8.911 57.97,-26.719 14.69,-17.742 22.03,-41.063 22.03,-70 l -0.31,-10.942 h -133.6 c 1.25,-18.238 5.36,-32.148 12.35,-41.718 8.75,-11.563 22.42,-17.34 41.09,-17.34 11.76,0 22.03,3.277 30.78,9.84 8.75,6.64 14.1,15.078 16.1,25.308 h 30.31 c -4.49,-20 -13.6,-35.308 -27.35,-45.9295 -13.67,-10.5507 -31.25,-15.789 -52.81,-15.789 z m 51.25,110.4685 c -0.86,16.961 -5,30.199 -12.5,39.692 -8.36,10.39 -20.58,15.629 -36.72,15.629 -16.17,0 -29.06,-6.059 -38.75,-18.129 -7.61,-9.371 -12.18,-21.801 -13.75,-37.192 z" /><path
         id="path90"
         style="fill:#2511a7;fill-opacity:1;fill-rule:nonzero;stroke:none"
         d="m 1698.05,81.4805 h 30.7773 v 251.25 H 1698.05 Z" /><path
         id="path92"
         style="fill:#2511a7;fill-opacity:1;fill-rule:nonzero;stroke:none"
         d="m 1849.73,76.4805 c -25.24,0 -45.71,8.9101 -61.41,26.7185 -15.62,17.821 -23.44,41.102 -23.44,69.852 0,28.937 7.82,52.258 23.44,70 15.7,17.808 36.17,26.719 61.41,26.719 25.5,0 46.09,-8.911 61.72,-26.719 15.62,-17.742 23.43,-41.063 23.43,-70 0,-28.75 -7.81,-52.031 -23.43,-69.852 -15.63,-17.8084 -36.22,-26.7185 -61.72,-26.7185 z m 0,26.5705 c 16.25,0 29.1,6.289 38.59,18.898 9.57,12.699 14.38,29.731 14.38,51.102 0,21.437 -4.81,38.508 -14.38,51.25 -9.49,12.687 -22.34,19.058 -38.59,19.058 -16.18,0 -29.03,-6.371 -38.6,-19.058 -9.49,-12.742 -14.22,-29.813 -14.22,-51.25 0,-21.371 4.73,-38.403 14.22,-51.102 9.57,-12.609 22.42,-18.898 38.6,-18.898 z" /><path
         id="path94"
         style="fill:#2511a7;fill-opacity:1;fill-rule:nonzero;stroke:none"
         d="m 1967.7,264.301 h 29.21 v -25.942 l 1.57,2.192 c 13.2,19.449 30.62,29.219 52.18,29.219 23.83,0 42.74,-8.25 56.72,-24.692 13.95,-16.488 20.94,-38.707 20.94,-66.719 0,-31.8 -7.03,-56.718 -21.09,-74.839 -14.07,-18.0512 -33.56,-27.0395 -58.44,-27.0395 -20.63,0 -37.03,7.8984 -49.22,23.7495 l -1.09,1.411 V 9.14063 h -30.78 z m 79.53,-161.102 c 16.01,0 28.2,6.02 36.56,18.129 8.32,12.192 12.5,29.883 12.5,53.121 0,22.891 -4.02,39.852 -12.03,50.781 -7.93,11.02 -20.24,16.571 -36.88,16.571 -16.99,0 -29.37,-6.211 -37.18,-18.602 -7.82,-12.418 -11.72,-32.109 -11.72,-59.058 0,-19.493 4.22,-34.532 12.65,-45.161 8.44,-10.539 20.47,-15.781 36.1,-15.781 z" /><path
         id="path96"
         style="fill:#2511a7;fill-opacity:1;fill-rule:nonzero;stroke:none"
         d="M 2164.84,81.4805 V 264.301 h 29.38 v -27.192 l 6.25,8.282 c 13.75,16.25 30.19,24.379 49.37,24.379 16.45,0 29.54,-4.848 39.22,-14.54 4.26,-4.289 7.58,-9.21 10,-14.839 l 5,6.41 c 13.21,15.308 28.99,22.969 47.35,22.969 19.14,0 33.94,-5.239 44.37,-15.629 10.39,-10.43 15.63,-25.231 15.63,-44.371 V 81.4805 h -30.79 V 199.449 c 0,13.832 -2.89,24.379 -8.59,31.571 -5.74,7.179 -14.06,10.781 -25,10.781 -13.36,0 -23.91,-5.242 -31.72,-15.629 -7.81,-10.313 -11.72,-24.332 -11.72,-42.031 V 81.4805 h -30.78 V 206.801 c 0,11.32 -2.61,20 -7.81,25.929 -5.23,6.02 -12.77,9.071 -22.66,9.071 -13.67,0 -24.84,-5.86 -33.59,-17.5 -8.75,-11.571 -13.13,-26.531 -13.13,-44.852 V 81.4805 Z" /><path
         id="path98"
         style="fill:#2511a7;fill-opacity:1;fill-rule:nonzero;stroke:none"
         d="m 2531.29,76.4805 c -25.86,0 -46.17,8.1679 -60.94,24.5395 -14.8,16.441 -22.19,39.14 -22.19,68.121 0,30.699 7.82,55.16 23.44,73.281 15.63,18.199 36.64,27.348 63.13,27.348 23.94,0 43.28,-8.911 57.97,-26.719 14.68,-17.742 22.03,-41.063 22.03,-70 l -0.32,-10.942 h -133.59 c 1.25,-18.238 5.35,-32.148 12.34,-41.718 8.75,-11.563 22.43,-17.34 41.1,-17.34 11.76,0 22.03,3.277 30.78,9.84 8.75,6.64 14.1,15.078 16.09,25.308 h 30.32 c -4.5,-20 -13.6,-35.308 -27.35,-45.9295 -13.67,-10.5507 -31.25,-15.789 -52.81,-15.789 z m 51.25,110.4685 c -0.86,16.961 -5,30.199 -12.5,39.692 -8.36,10.39 -20.59,15.629 -36.72,15.629 -16.17,0 -29.06,-6.059 -38.75,-18.129 -7.62,-9.371 -12.19,-21.801 -13.75,-37.192 z" /><path
         id="path100"
         style="fill:#2511a7;fill-opacity:1;fill-rule:nonzero;stroke:none"
         d="M 2651.56,81.4805 V 264.301 h 29.38 v -26.879 l 6.72,8.906 c 13.32,15.621 30.04,23.442 50.15,23.442 20.08,0 35.63,-5.469 46.57,-16.411 10.93,-10.937 16.4,-26.48 16.4,-46.558 V 81.4805 H 2770 V 196.328 c 0,16.012 -3.12,27.582 -9.38,34.692 -6.17,7.179 -16.17,10.781 -30,10.781 -14.8,0 -26.56,-5.629 -35.31,-16.879 -8.67,-11.25 -12.97,-26.402 -12.97,-45.473 V 81.4805 Z" /><path
         id="path102"
         style="fill:#2511a7;fill-opacity:1;fill-rule:nonzero;stroke:none"
         d="m 2913.59,81.6406 c -10.43,-1.5625 -18.04,-2.3398 -22.81,-2.3398 -13.44,0 -22.93,2.9687 -28.44,8.8984 -5.54,5.9414 -8.28,16.1018 -8.28,30.4728 v 120.629 h -25.31 v 25 h 25.31 v 51.25 h 30.63 v -51.25 h 28.9 v -25 h -28.9 V 118.672 c 0,-4.063 1.6,-7.301 4.84,-9.692 3.32,-2.421 7.7,-3.589 13.13,-3.589 h 10.93 z" /><path
         id="path104"
         style="fill:#2511a7;fill-opacity:1;fill-rule:nonzero;stroke:none"
         d="m 3048.32,211.328 c -0.94,10.192 -5.12,18.051 -12.5,23.594 -7.3,5.629 -17.15,8.437 -29.53,8.437 -12.81,0 -22.58,-2.269 -29.22,-6.718 -6.68,-4.493 -10,-11.02 -10,-19.532 0,-6.488 2.34,-11.371 7.03,-14.687 4.69,-3.242 13.99,-6.524 27.97,-9.844 l 31.72,-7.5 c 17.81,-4.379 30.51,-10.387 38.12,-17.969 7.5,-7.5 11.25,-18.05 11.25,-31.558 0,-18.129 -6.52,-32.5 -19.53,-43.1291 -13.04,-10.6211 -30.7,-15.9414 -52.97,-15.9414 -25.74,0 -44.96,5.0781 -57.65,15.3203 -12.62,10.1872 -19.61,26.2502 -20.94,48.1212 h 29.53 c 1.56,-13.043 6.13,-22.461 13.75,-28.281 7.7,-5.743 19.45,-8.59 35.31,-8.59 13.83,0 24.3,2.57 31.41,7.808 7.07,5.192 10.63,12.852 10.63,22.969 0,6.332 -2.31,11.172 -6.88,14.531 -4.69,3.2 -14.14,6.481 -28.28,9.84 l -31.72,7.5 c -17.3,4.141 -29.61,9.922 -36.87,17.352 -7.31,7.258 -10.94,17.539 -10.94,30.777 0,17.192 6.13,30.781 18.44,40.781 12.26,10.082 28.9,15.161 49.84,15.161 21.25,0 38.16,-5.239 50.78,-15.629 12.58,-10.313 19.3,-24.61 20.16,-42.813 z" /></g></g></svg>